REM DIRINDEX 1\2\4\8,1\2\4\9,1\2\4\10,1\2\5\11,1\2\5\12,1\2\5\13,1\2\5\14,1\2\5\15,1\3\6\16,1\3\6\17,1\3\6\18,1\3\7\19,1\3\7\20,1\3\7\21,1\3\7\22,1\3\7\23
REM DIRNAME "folder01","folder02","folder03","folder04","folder05","folder06","folder07","folder08","folder09","folder10","folder11","folder12","folder13","folder14","folder15","folder16","folder17","folder18","folder19","folder20","folder21","folder22","folder23"
TITLE ""
FILE "LR_black_phrase_E_B10.mp3" MP3
  TRACK 01 AUDIO
    TITLE "0:"
    INDEX 01 00:00:00
  TRACK 02 AUDIO
    TITLE "16:cjc171_09711"
    INDEX 01 00:00:14
  TRACK 03 AUDIO
    TITLE "0:"
    INDEX 01 00:01:37
  TRACK 04 AUDIO
    TITLE "17:cjc171_09712"
    INDEX 01 00:01:67
  TRACK 05 AUDIO
    TITLE "0:"
    INDEX 01 00:04:04
  TRACK 06 AUDIO
    TITLE "18:cjc171_09713"
    INDEX 01 00:04:57
  TRACK 07 AUDIO
    TITLE "0:"
    INDEX 01 00:06:68
  TRACK 08 AUDIO
    TITLE "16:cjc171_09714"
    INDEX 01 00:07:73
  TRACK 09 AUDIO
    TITLE "0:"
    INDEX 01 00:09:19
  TRACK 10 AUDIO
    TITLE "17:cjc171_09715"
    INDEX 01 00:09:46
  TRACK 11 AUDIO
    TITLE "0:"
    INDEX 01 00:11:55
  TRACK 12 AUDIO
    TITLE "18:cjc171_09716"
    INDEX 01 00:12:31
  TRACK 13 AUDIO
    TITLE "0:"
    INDEX 01 00:14:40
  TRACK 14 AUDIO
    TITLE "16:cjc171_09717"
    INDEX 01 00:15:41
  TRACK 15 AUDIO
    TITLE "0:"
    INDEX 01 00:16:60
  TRACK 16 AUDIO
    TITLE "17:cjc171_09718"
    INDEX 01 00:17:15
  TRACK 17 AUDIO
    TITLE "0:"
    INDEX 01 00:18:73
  TRACK 18 AUDIO
    TITLE "18:cjc171_09719"
    INDEX 01 00:19:53
  TRACK 19 AUDIO
    TITLE "0:"
    INDEX 01 00:21:36
  TRACK 20 AUDIO
    TITLE "16:cjc171_09720"
    INDEX 01 00:22:35
  TRACK 21 AUDIO
    TITLE "0:"
    INDEX 01 00:23:66
  TRACK 22 AUDIO
    TITLE "17:cjc171_09721"
    INDEX 01 00:24:15
  TRACK 23 AUDIO
    TITLE "0:"
    INDEX 01 00:26:14
  TRACK 24 AUDIO
    TITLE "18:cjc171_09722"
    INDEX 01 00:26:63
  TRACK 25 AUDIO
    TITLE "0:"
    INDEX 01 00:28:61
  TRACK 26 AUDIO
    TITLE "16:cjc171_09723"
    INDEX 01 00:29:59
  TRACK 27 AUDIO
    TITLE "0:"
    INDEX 01 00:31:11
  TRACK 28 AUDIO
    TITLE "17:cjc171_09724"
    INDEX 01 00:31:32
  TRACK 29 AUDIO
    TITLE "0:"
    INDEX 01 00:34:09
  TRACK 30 AUDIO
    TITLE "18:cjc171_09725"
    INDEX 01 00:34:54
  TRACK 31 AUDIO
    TITLE "0:"
    INDEX 01 00:37:33
  TRACK 32 AUDIO
    TITLE "16:cjc171_09726"
    INDEX 01 00:38:27
  TRACK 33 AUDIO
    TITLE "0:"
    INDEX 01 00:39:42
  TRACK 34 AUDIO
    TITLE "17:cjc171_09727"
    INDEX 01 00:39:63
  TRACK 35 AUDIO
    TITLE "0:"
    INDEX 01 00:41:64
  TRACK 36 AUDIO
    TITLE "18:cjc171_09728"
    INDEX 01 00:42:36
  TRACK 37 AUDIO
    TITLE "0:"
    INDEX 01 00:44:37
  TRACK 38 AUDIO
    TITLE "16:cjc171_09729"
    INDEX 01 00:45:36
  TRACK 39 AUDIO
    TITLE "0:"
    INDEX 01 00:46:57
  TRACK 40 AUDIO
    TITLE "17:cjc171_09730"
    INDEX 01 00:47:12
  TRACK 41 AUDIO
    TITLE "0:"
    INDEX 01 00:49:58
  TRACK 42 AUDIO
    TITLE "18:cjc171_09731"
    INDEX 01 00:50:38
  TRACK 43 AUDIO
    TITLE "0:"
    INDEX 01 00:53:07
  TRACK 44 AUDIO
    TITLE "16:cjc171_09732"
    INDEX 01 00:54:12
  TRACK 45 AUDIO
    TITLE "0:"
    INDEX 01 00:55:29
  TRACK 46 AUDIO
    TITLE "17:cjc171_09733"
    INDEX 01 00:55:58
  TRACK 47 AUDIO
    TITLE "0:"
    INDEX 01 00:57:61
  TRACK 48 AUDIO
    TITLE "18:cjc171_09734"
    INDEX 01 00:58:39
  TRACK 49 AUDIO
    TITLE "0:"
    INDEX 01 01:00:44
  TRACK 50 AUDIO
    TITLE "16:cjc171_09735"
    INDEX 01 01:01:47
  TRACK 51 AUDIO
    TITLE "0:"
    INDEX 01 01:02:54
  TRACK 52 AUDIO
    TITLE "17:cjc171_09736"
    INDEX 01 01:03:07
  TRACK 53 AUDIO
    TITLE "0:"
    INDEX 01 01:05:51
  TRACK 54 AUDIO
    TITLE "18:cjc171_09737"
    INDEX 01 01:06:29
  TRACK 55 AUDIO
    TITLE "0:"
    INDEX 01 01:08:75
  TRACK 56 AUDIO
    TITLE "16:cjc171_09738"
    INDEX 01 01:09:72
  TRACK 57 AUDIO
    TITLE "0:"
    INDEX 01 01:10:68
  TRACK 58 AUDIO
    TITLE "17:cjc171_09739"
    INDEX 01 01:11:12
  TRACK 59 AUDIO
    TITLE "0:"
    INDEX 01 01:13:50
  TRACK 60 AUDIO
    TITLE "18:cjc171_09740"
    INDEX 01 01:14:24
  TRACK 61 AUDIO
    TITLE "0:"
    INDEX 01 01:16:62
  TRACK 62 AUDIO
    TITLE "16:cjc171_09741"
    INDEX 01 01:17:62
  TRACK 63 AUDIO
    TITLE "0:"
    INDEX 01 01:18:67
  TRACK 64 AUDIO
    TITLE "17:cjc171_09742"
    INDEX 01 01:19:12
  TRACK 65 AUDIO
    TITLE "0:"
    INDEX 01 01:21:32
  TRACK 66 AUDIO
    TITLE "18:cjc171_09743"
    INDEX 01 01:22:02
  TRACK 67 AUDIO
    TITLE "0:"
    INDEX 01 01:24:23
  TRACK 68 AUDIO
    TITLE "16:cjc171_09744"
    INDEX 01 01:25:18
  TRACK 69 AUDIO
    TITLE "0:"
    INDEX 01 01:26:45
  TRACK 70 AUDIO
    TITLE "17:cjc171_09745"
    INDEX 01 01:26:65
  TRACK 71 AUDIO
    TITLE "0:"
    INDEX 01 01:28:73
  TRACK 72 AUDIO
    TITLE "18:cjc171_09746"
    INDEX 01 01:29:45
  TRACK 73 AUDIO
    TITLE "0:"
    INDEX 01 01:31:54
  TRACK 74 AUDIO
    TITLE "16:cjc171_09747"
    INDEX 01 01:32:54
  TRACK 75 AUDIO
    TITLE "0:"
    INDEX 01 01:34:04
  TRACK 76 AUDIO
    TITLE "17:cjc171_09748"
    INDEX 01 01:34:31
  TRACK 77 AUDIO
    TITLE "0:"
    INDEX 01 01:36:32
  TRACK 78 AUDIO
    TITLE "18:cjc171_09749"
    INDEX 01 01:37:12
  TRACK 79 AUDIO
    TITLE "0:"
    INDEX 01 01:39:13
  TRACK 80 AUDIO
    TITLE "16:cjc171_09750"
    INDEX 01 01:40:18
  TRACK 81 AUDIO
    TITLE "0:"
    INDEX 01 01:41:35
  TRACK 82 AUDIO
    TITLE "17:cjc171_09751"
    INDEX 01 01:41:64
  TRACK 83 AUDIO
    TITLE "0:"
    INDEX 01 01:45:05
  TRACK 84 AUDIO
    TITLE "18:cjc171_09752"
    INDEX 01 01:45:60
  TRACK 85 AUDIO
    TITLE "0:"
    INDEX 01 01:48:74
  TRACK 86 AUDIO
    TITLE "16:cjc171_09753"
    INDEX 01 01:50:06
  TRACK 87 AUDIO
    TITLE "0:"
    INDEX 01 01:51:37
  TRACK 88 AUDIO
    TITLE "17:cjc171_09754"
    INDEX 01 01:51:67
  TRACK 89 AUDIO
    TITLE "0:"
    INDEX 01 01:54:18
  TRACK 90 AUDIO
    TITLE "18:cjc171_09755"
    INDEX 01 01:54:73
  TRACK 91 AUDIO
    TITLE "0:"
    INDEX 01 01:57:22
  TRACK 92 AUDIO
    TITLE "16:cjc171_09756"
    INDEX 01 01:58:22
  TRACK 93 AUDIO
    TITLE "0:"
    INDEX 01 01:59:43
  TRACK 94 AUDIO
    TITLE "17:cjc171_09757"
    INDEX 01 01:59:62
  TRACK 95 AUDIO
    TITLE "0:"
    INDEX 01 02:02:55
  TRACK 96 AUDIO
    TITLE "18:cjc171_09758"
    INDEX 01 02:03:25
  TRACK 97 AUDIO
    TITLE "0:"
    INDEX 01 02:06:17
  TRACK 98 AUDIO
    TITLE "16:cjc171_09759"
    INDEX 01 02:07:15
  TRACK 99 AUDIO
    TITLE "0:"
    INDEX 01 02:08:22
  TRACK 100 AUDIO
    TITLE "17:cjc171_09760"
    INDEX 01 02:08:55
  TRACK 101 AUDIO
    TITLE "0:"
    INDEX 01 02:11:20
  TRACK 102 AUDIO
    TITLE "18:cjc171_09761"
    INDEX 01 02:11:67
  TRACK 103 AUDIO
    TITLE "0:"
    INDEX 01 02:14:34
  TRACK 104 AUDIO
    TITLE "16:cjc171_09762"
    INDEX 01 02:15:32
  TRACK 105 AUDIO
    TITLE "0:"
    INDEX 01 02:16:51
  TRACK 106 AUDIO
    TITLE "17:cjc171_09763"
    INDEX 01 02:16:73
  TRACK 107 AUDIO
    TITLE "0:"
    INDEX 01 02:19:26
  TRACK 108 AUDIO
    TITLE "18:cjc171_09764"
    INDEX 01 02:19:73
  TRACK 109 AUDIO
    TITLE "0:"
    INDEX 01 02:22:30
  TRACK 110 AUDIO
    TITLE "16:cjc171_09765"
    INDEX 01 02:23:31
  TRACK 111 AUDIO
    TITLE "0:"
    INDEX 01 02:24:45
  TRACK 112 AUDIO
    TITLE "17:cjc171_09766"
    INDEX 01 02:24:74
  TRACK 113 AUDIO
    TITLE "0:"
    INDEX 01 02:27:02
  TRACK 114 AUDIO
    TITLE "18:cjc171_09767"
    INDEX 01 02:27:57
  TRACK 115 AUDIO
    TITLE "0:"
    INDEX 01 02:29:59
  TRACK 116 AUDIO
    TITLE "16:cjc171_09768"
    INDEX 01 02:30:65
  TRACK 117 AUDIO
    TITLE "0:"
    INDEX 01 02:32:15
  TRACK 118 AUDIO
    TITLE "17:cjc171_09769"
    INDEX 01 02:32:44
  TRACK 119 AUDIO
    TITLE "0:"
    INDEX 01 02:35:17
  TRACK 120 AUDIO
    TITLE "18:cjc171_09770"
    INDEX 01 02:35:74
  TRACK 121 AUDIO
    TITLE "0:"
    INDEX 01 02:38:45
  TRACK 122 AUDIO
    TITLE "16:cjc171_09771"
    INDEX 01 02:39:50
  TRACK 123 AUDIO
    TITLE "0:"
    INDEX 01 02:40:69
  TRACK 124 AUDIO
    TITLE "17:cjc171_09772"
    INDEX 01 02:41:22
  TRACK 125 AUDIO
    TITLE "0:"
    INDEX 01 02:43:28
  TRACK 126 AUDIO
    TITLE "18:cjc171_09773"
    INDEX 01 02:44:06
  TRACK 127 AUDIO
    TITLE "0:"
    INDEX 01 02:46:15
  TRACK 128 AUDIO
    TITLE "16:cjc171_09774"
    INDEX 01 02:47:12
  TRACK 129 AUDIO
    TITLE "0:"
    INDEX 01 02:48:37
  TRACK 130 AUDIO
    TITLE "17:cjc171_09775"
    INDEX 01 02:48:59
  TRACK 131 AUDIO
    TITLE "0:"
    INDEX 01 02:51:53
  TRACK 132 AUDIO
    TITLE "18:cjc171_09776"
    INDEX 01 02:52:25
  TRACK 133 AUDIO
    TITLE "0:"
    INDEX 01 02:55:20
  TRACK 134 AUDIO
    TITLE "16:cjc171_09777"
    INDEX 01 02:56:15
  TRACK 135 AUDIO
    TITLE "0:"
    INDEX 01 02:57:19
  TRACK 136 AUDIO
    TITLE "17:cjc171_09778"
    INDEX 01 02:57:38
  TRACK 137 AUDIO
    TITLE "0:"
    INDEX 01 02:59:15
  TRACK 138 AUDIO
    TITLE "18:cjc171_09779"
    INDEX 01 02:59:61
  TRACK 139 AUDIO
    TITLE "0:"
    INDEX 01 03:01:38
  TRACK 140 AUDIO
    TITLE "16:cjc171_09780"
    INDEX 01 03:02:31
  TRACK 141 AUDIO
    TITLE "0:"
    INDEX 01 03:03:45
  TRACK 142 AUDIO
    TITLE "17:cjc171_09781"
    INDEX 01 03:03:66
  TRACK 143 AUDIO
    TITLE "0:"
    INDEX 01 03:05:71
  TRACK 144 AUDIO
    TITLE "18:cjc171_09782"
    INDEX 01 03:06:43
  TRACK 145 AUDIO
    TITLE "0:"
    INDEX 01 03:08:48
  TRACK 146 AUDIO
    TITLE "16:cjc171_09783"
    INDEX 01 03:09:49
  TRACK 147 AUDIO
    TITLE "0:"
    INDEX 01 03:11:36
  TRACK 148 AUDIO
    TITLE "17:cjc171_09784"
    INDEX 01 03:11:68
  TRACK 149 AUDIO
    TITLE "0:"
    INDEX 01 03:14:27
  TRACK 150 AUDIO
    TITLE "18:cjc171_09785"
    INDEX 01 03:15:05
  TRACK 151 AUDIO
    TITLE "0:"
    INDEX 01 03:17:39
  TRACK 152 AUDIO
    TITLE "16:cjc171_09786"
    INDEX 01 03:18:42
  TRACK 153 AUDIO
    TITLE "0:"
    INDEX 01 03:19:53
  TRACK 154 AUDIO
    TITLE "17:cjc171_09787"
    INDEX 01 03:20:08
  TRACK 155 AUDIO
    TITLE "0:"
    INDEX 01 03:22:52
  TRACK 156 AUDIO
    TITLE "18:cjc171_09788"
    INDEX 01 03:23:30
  TRACK 157 AUDIO
    TITLE "0:"
    INDEX 01 03:25:74
  TRACK 158 AUDIO
    TITLE "16:cjc171_09789"
    INDEX 01 03:26:71
  TRACK 159 AUDIO
    TITLE "0:"
    INDEX 01 03:28:09
  TRACK 160 AUDIO
    TITLE "17:cjc171_09790"
    INDEX 01 03:28:41
  TRACK 161 AUDIO
    TITLE "0:"
    INDEX 01 03:30:57
  TRACK 162 AUDIO
    TITLE "18:cjc171_09791"
    INDEX 01 03:31:37
  TRACK 163 AUDIO
    TITLE "0:"
    INDEX 01 03:33:54
  TRACK 164 AUDIO
    TITLE "16:cjc171_09792"
    INDEX 01 03:34:55
  TRACK 165 AUDIO
    TITLE "0:"
    INDEX 01 03:35:70
  TRACK 166 AUDIO
    TITLE "17:cjc171_09793"
    INDEX 01 03:36:15
  TRACK 167 AUDIO
    TITLE "0:"
    INDEX 01 03:38:16
  TRACK 168 AUDIO
    TITLE "18:cjc171_09794"
    INDEX 01 03:38:70
  TRACK 169 AUDIO
    TITLE "0:"
    INDEX 01 03:40:71
  TRACK 170 AUDIO
    TITLE "16:cjc171_09795"
    INDEX 01 03:41:75
  TRACK 171 AUDIO
    TITLE "0:"
    INDEX 01 03:43:05
  TRACK 172 AUDIO
    TITLE "17:cjc171_09796"
    INDEX 01 03:43:36
  TRACK 173 AUDIO
    TITLE "0:"
    INDEX 01 03:45:18
  TRACK 174 AUDIO
    TITLE "18:cjc171_09797"
    INDEX 01 03:45:70
  TRACK 175 AUDIO
    TITLE "0:"
    INDEX 01 03:47:54
  TRACK 176 AUDIO
    TITLE "16:cjc171_09798"
    INDEX 01 03:48:51
  TRACK 177 AUDIO
    TITLE "0:"
    INDEX 01 03:49:66
  TRACK 178 AUDIO
    TITLE "17:cjc171_09799"
    INDEX 01 03:50:13
  TRACK 179 AUDIO
    TITLE "0:"
    INDEX 01 03:52:27
  TRACK 180 AUDIO
    TITLE "18:cjc171_09800"
    INDEX 01 03:52:74
  TRACK 181 AUDIO
    TITLE "0:"
    INDEX 01 03:55:16
